<?xml version="1.0" encoding="utf-8"?>
<!-- Generator: Adobe Illustrator 18.0.0, SVG Export Plug-In . SVG Version: 6.00 Build 0)  -->
<!DOCTYPE svg PUBLIC "-//W3C//DTD SVG 1.1//EN" "http://www.w3.org/Graphics/SVG/1.1/DTD/svg11.dtd">
<svg version="1.1" id="Layer_1" xmlns="http://www.w3.org/2000/svg" xmlns:xlink="http://www.w3.org/1999/xlink" x="0px" y="0px"
	 viewBox="0 0 230 230" enable-background="new 0 0 230 230" xml:space="preserve">
<path fill="#CE6E28" d="M115.9,136.4h-3.3v-21.7h1.6c11.5,0,20.9-9.4,20.9-20.9c0-11.5-9.4-20.9-20.9-20.9
	c-11.5,0-20.9,9.4-20.9,20.9h-3.3c0-13.3,10.9-24.2,24.2-24.2c13.3,0,24.2,10.9,24.2,24.2c0,12.8-10,23.3-22.6,24.2V136.4z"/>
<path fill="#CE6E28" d="M114.3,166.7c-5,0-9-4-9-9c0-5,4-9,9-9c5,0,9,4,9,9C123.3,162.6,119.2,166.7,114.3,166.7z M114.3,152
	c-3.1,0-5.7,2.6-5.7,5.7s2.6,5.7,5.7,5.7s5.7-2.6,5.7-5.7S117.4,152,114.3,152z"/>
<path fill="#822433" d="M114.3,210.9c-25.5,0-49.6-9.9-67.6-28c-18.1-18.1-28-42.1-28-67.6s9.9-49.6,28-67.6
	c18.1-18.1,42.1-28,67.6-28s49.6,9.9,67.6,28c18.1,18.1,28,42.1,28,67.6s-9.9,49.6-28,67.6C163.8,201,139.8,210.9,114.3,210.9z
	 M114.3,22.9c-24.7,0-47.9,9.6-65.3,27c-17.4,17.4-27,40.6-27,65.3c0,24.7,9.6,47.9,27,65.3c17.4,17.4,40.6,27,65.3,27
	c24.7,0,47.9-9.6,65.3-27s27-40.6,27-65.3c0-24.7-9.6-47.9-27-65.3C162.1,32.5,138.9,22.9,114.3,22.9z"/>
<path fill="#822433" d="M47.9,162.7c-20.3-28.4-20.2-66.6,0.1-95c12.7-17.7,31.5-29.4,53-32.9c21.5-3.5,43.1,1.5,60.8,14.2l-1.9,2.7
	c-35-25.2-84-17.1-109.2,17.9c-19.6,27.2-19.6,63.9-0.1,91.1L47.9,162.7z"/>
<path fill="#822433" d="M114.2,196.8c-16.5,0-33.1-5-47.4-15.3l1.9-2.7c13.8,9.9,29.7,14.7,45.5,14.7c24.4,0,48.4-11.3,63.7-32.6
	c19.6-27.2,19.6-63.8,0.1-91.1l2.7-1.9c20.3,28.4,20.2,66.6-0.1,95C164.6,185,139.6,196.8,114.2,196.8z"/>
</svg>
