<?xml version="1.0" encoding="utf-8"?>
<!-- Generator: Adobe Illustrator 18.0.0, SVG Export Plug-In . SVG Version: 6.00 Build 0)  -->
<!DOCTYPE svg PUBLIC "-//W3C//DTD SVG 1.1//EN" "http://www.w3.org/Graphics/SVG/1.1/DTD/svg11.dtd">
<svg version="1.1" id="Layer_1" xmlns="http://www.w3.org/2000/svg" xmlns:xlink="http://www.w3.org/1999/xlink" x="0px" y="0px"
	 viewBox="0 0 230 230" enable-background="new 0 0 230 230" xml:space="preserve">
<g>
	<path fill="#822433" d="M132.4,83.9c-7.2,0-13.1,5.9-13.1,13.1v9.8h-8.4V97c0-7.2-5.9-13.1-13.1-13.1S84.7,89.8,84.7,97
		s5.9,13.1,13.1,13.1h9.8v112.2h3.3V110.1h8.4V220h3.3V110.1h9.8c7.2,0,13.1-5.9,13.1-13.1S139.6,83.9,132.4,83.9z M107.6,106.8
		h-9.8c-5.4,0-9.8-4.4-9.8-9.8s4.4-9.8,9.8-9.8c5.4,0,9.8,4.4,9.8,9.8V106.8z M132.3,106.8h-9.8V97c0-5.4,4.4-9.8,9.8-9.8
		c5.4,0,9.8,4.4,9.8,9.8S137.7,106.8,132.3,106.8z"/>
	
		<rect x="58.8" y="140.5" transform="matrix(-0.707 -0.7073 0.7073 -0.707 -4.1969 301.8961)" fill="#822433" width="3.3" height="22.7"/>
	
		<rect x="168" y="31.4" transform="matrix(-0.7073 -0.707 0.707 -0.7073 259.431 192.8543)" fill="#822433" width="3.3" height="22.6"/>
	
		<rect x="158.9" y="148.7" transform="matrix(-0.7071 -0.7071 0.7071 -0.7071 180.8553 375.6423)" fill="#822433" width="18.6" height="3.3"/>
	
		<rect x="49.2" y="41" transform="matrix(-0.7071 -0.7071 0.7071 -0.7071 73.2048 115.7199)" fill="#822433" width="22.7" height="3.3"/>
	<rect x="113.4" y="8.8" fill="#822433" width="3.3" height="22.7"/>
	<rect x="26.6" y="95.6" fill="#822433" width="22.6" height="3.3"/>
	<rect x="180.8" y="95.6" fill="#822433" width="22.7" height="3.3"/>
	<path fill="#CE6E28" d="M115.1,149.7c-13.8,0-26.8-5.4-36.6-15.2c-20.2-20.2-20.2-53,0-73.2c9.8-9.8,22.8-15.2,36.6-15.2
		s26.8,5.4,36.6,15.2c20.2,20.2,20.2,53,0,73.2C141.9,144.3,128.9,149.7,115.1,149.7z M115.1,49.5c-12.9,0-25.1,5-34.3,14.2
		c-18.9,18.9-18.9,49.6,0,68.5c9.2,9.2,21.3,14.2,34.3,14.2c12.9,0,25.1-5,34.3-14.2c18.9-18.9,18.9-49.6,0-68.5
		C140.2,54.5,128,49.5,115.1,49.5z"/>
	<g>
		<polygon fill="#CE6E28" points="98.8,206.2 98.8,209.6 130.8,202.6 130.8,199.2 		"/>
		<polygon fill="#CE6E28" points="98.8,193.4 98.8,196.8 130.8,189.8 130.8,186.5 		"/>
		<polygon fill="#CE6E28" points="98.8,180.6 98.8,184 130.8,177.1 130.8,173.7 		"/>
		<polygon fill="#CE6E28" points="98.8,167.9 98.8,171.2 130.8,164.3 130.8,160.9 		"/>
	</g>
</g>
</svg>
