<?xml version="1.0" encoding="utf-8"?>
<!-- Generator: Adobe Illustrator 18.0.0, SVG Export Plug-In . SVG Version: 6.00 Build 0)  -->
<!DOCTYPE svg PUBLIC "-//W3C//DTD SVG 1.1//EN" "http://www.w3.org/Graphics/SVG/1.1/DTD/svg11.dtd">
<svg version="1.1" id="Layer_1" xmlns="http://www.w3.org/2000/svg" xmlns:xlink="http://www.w3.org/1999/xlink" x="0px" y="0px"
	 viewBox="0 0 230 230" enable-background="new 0 0 230 230" xml:space="preserve">
<rect x="54.4" y="167.9" fill="#CE6E28" width="71.3" height="3.3"/>
<rect x="54.4" y="152.4" fill="#CE6E28" width="38.9" height="3.3"/>
<path fill="#CE6E28" d="M99.9,122.8H54.7v-17.1h45.2V122.8z M58,119.5h38.6V109H58V119.5z"/>
<polygon fill="#822433" points="145.4,201.1 142.1,201.1 142.1,166.1 177,166.1 177,169.4 145.4,169.4 "/>
<path fill="#CE6E28" d="M155.5,70.4H54.7V53.3h100.8V70.4z M58,67.1h94.2V56.6H58V67.1z"/>
<path fill="#822433" d="M155.5,96.9H54.7V79.8h100.8V96.9z M58,93.6h94.2V83.1H58V93.6z"/>
<polygon fill="#822433" points="175.4,138.2 175.4,167.1 143.1,199.4 34.9,199.4 34.9,31.6 175.4,31.6 175.4,77.2 178.7,73.9 
	178.7,28.3 31.6,28.3 31.6,202.8 144.4,202.8 178.7,168.5 178.7,134.9 "/>
<path fill="#FFFFFF" d="M202.6,68.2L135,135.9l-5.8,17.9l17.9-5.8l67.6-67.6c3.4-3.4,3.4-8.8,0-12.1C211.4,64.9,206,64.9,202.6,68.2
	"/>
<path fill="#822433" d="M126.6,156.3l6.9-21.4l0.3-0.3l67.6-67.6c1.9-1.9,4.5-3,7.2-3s5.3,1.1,7.2,3c1.9,1.9,3,4.5,3,7.2
	s-1.1,5.3-3,7.2L148,149.5L126.6,156.3z M136.4,136.7l-4.7,14.5l14.5-4.7l67.3-67.3c1.3-1.3,2-3.1,2-4.9c0-1.9-0.7-3.6-2-4.9
	c-1.3-1.3-3.1-2-4.9-2s-3.6,0.7-4.9,2L136.4,136.7z"/>
<rect x="133.2" y="139.4" transform="matrix(0.7071 0.7071 -0.7071 0.7071 141.1774 -58.6941)" fill="#822433" width="16.5" height="3.3"/>
</svg>
