<?xml version="1.0" encoding="utf-8"?>
<!-- Generator: Adobe Illustrator 16.0.0, SVG Export Plug-In . SVG Version: 6.00 Build 0)  -->
<!DOCTYPE svg PUBLIC "-//W3C//DTD SVG 1.1//EN" "http://www.w3.org/Graphics/SVG/1.1/DTD/svg11.dtd">
<svg version="1.1" id="Layer_1" xmlns="http://www.w3.org/2000/svg" xmlns:xlink="http://www.w3.org/1999/xlink" x="0px" y="0px"
	 width="230px" height="230px" viewBox="0 0 230 230" enable-background="new 0 0 230 230" xml:space="preserve">
<path fill="#822433" d="M69.452,59.595c-12.388,0-22.466-10.078-22.466-22.465c0-12.388,10.078-22.465,22.466-22.465
	c12.387,0,22.465,10.078,22.465,22.465C91.917,49.518,81.839,59.595,69.452,59.595z M69.452,17.965
	c-10.568,0-19.166,8.598-19.166,19.166c0,10.567,8.598,19.165,19.166,19.165c10.567,0,19.165-8.598,19.165-19.165
	C88.617,26.562,80.02,17.965,69.452,17.965z"/>
<path fill="#822433" d="M165.415,77.776c-11.137,0-20.198-9.061-20.198-20.198c0-11.137,9.062-20.197,20.198-20.197
	s20.197,9.06,20.197,20.197C185.612,68.716,176.552,77.776,165.415,77.776z M165.415,40.682c-9.317,0-16.897,7.58-16.897,16.897
	c0,9.317,7.58,16.898,16.897,16.898s16.896-7.581,16.896-16.898C182.312,48.262,174.732,40.682,165.415,40.682z"/>
<g>
	<path fill="#822433" d="M165.414,87.093c-10.355,0-19.773,4.065-26.764,10.674c0.516,1.053,0.981,2.134,1.392,3.244
		c6.475-6.55,15.456-10.618,25.372-10.618c19.684,0,35.697,16.013,35.697,35.696v52.022h-26.863h-6.621H28.411v-61.006
		c0-23.129,18.817-41.945,41.946-41.945c8.073,0,15.617,2.298,22.022,6.266c1.208-0.565,2.456-1.062,3.734-1.488
		c-7.316-5.085-16.191-8.077-25.757-8.077c-24.949,0-45.246,20.297-45.246,45.245v64.307h142.516h6.621h30.164v-55.323
		C204.412,104.586,186.917,87.093,165.414,87.093z"/>
	<rect x="50.047" y="115.569" fill="#822433" width="3.3" height="45.134"/>
	<rect x="178.543" y="124.771" fill="#822433" width="3.301" height="35.932"/>
</g>
<path fill="#CE6E28" d="M138.634,215.479H76.041v-44.152c0-17.257,14.04-31.297,31.297-31.297c17.256,0,31.296,14.04,31.296,31.297
	V215.479z M79.34,212.178h55.993v-40.852c0-15.438-12.559-27.996-27.996-27.996c-15.438,0-27.997,12.559-27.997,27.996V212.178z"/>
<path fill="#CE6E28" d="M107.338,130.535c-9.595,0-17.401-7.807-17.401-17.401s7.806-17.4,17.401-17.4c9.595,0,17.4,7.806,17.4,17.4
	S116.933,130.535,107.338,130.535z M107.338,99.034c-7.775,0-14.102,6.325-14.102,14.1s6.326,14.1,14.102,14.1
	c7.775,0,14.1-6.325,14.1-14.1S115.113,99.034,107.338,99.034z"/>
</svg>
